<svg width="40" height="40" viewBox="0 0 40 40" fill="none" xmlns="http://www.w3.org/2000/svg">
<g clip-path="url(#clip0_840_3124)">
<path d="M38.2116 35.6772C39.0847 35.6772 39.7917 34.9702 39.7917 34.0972C39.7917 33.2241 39.0847 32.5171 38.2116 32.5171H33.8462C33.8462 32.5171 33.8078 32.5213 33.7866 32.5213C33.7056 32.5213 33.629 32.5299 33.5523 32.5469C33.5395 32.5469 33.5268 32.5469 33.5182 32.5512C33.0838 32.6363 32.6877 32.8919 32.4492 33.305L30.0344 37.4873C29.6 38.2411 29.8555 39.2079 30.6136 39.6466C30.7584 39.7317 30.9118 39.7786 31.0693 39.8127C31.0906 39.8169 31.1119 39.8212 31.1332 39.8254C31.2014 39.8382 31.2738 39.8425 31.3419 39.8467C31.3717 39.8467 31.3973 39.8553 31.4271 39.8553H38.2159C39.0889 39.8553 39.7959 39.1483 39.7959 38.2752C39.7959 37.4021 39.0889 36.6951 38.2159 36.6951H34.1443L34.7363 35.673H38.2201L38.2116 35.6772Z" fill="#F15A29"/>
<path d="M38.2116 28.2922H31.4228C31.4228 28.2922 31.3887 28.2965 31.3675 28.2965C31.3078 28.2965 31.2525 28.305 31.1928 28.3135C31.146 28.322 31.1034 28.3263 31.0608 28.3348C31.0012 28.3476 30.9458 28.3689 30.8904 28.3859C30.8521 28.3987 30.8138 28.4115 30.7755 28.4285C30.7158 28.454 30.6605 28.4881 30.6008 28.5222C30.571 28.5392 30.5412 28.5563 30.5157 28.5733C30.456 28.6159 30.4049 28.6627 30.3496 28.7096C30.3283 28.7309 30.307 28.7479 30.2857 28.7692C30.2346 28.8203 30.192 28.8757 30.1494 28.9353C30.1324 28.9609 30.1111 28.9864 30.094 29.012C30.0813 29.0333 30.06 29.0546 30.0472 29.0759L26.9893 34.374C26.5548 35.1278 26.8104 36.0946 27.5685 36.5333C28.3223 36.9677 29.2891 36.7121 29.7278 35.954L32.33 31.4438H38.2116C39.0847 31.4438 39.7916 30.7368 39.7916 29.8638C39.7916 28.9907 39.0847 28.2837 38.2116 28.2837V28.2922Z" fill="#F15A29"/>
<path d="M22.9773 7.84495C23.3725 7.84495 23.6928 7.5246 23.6928 7.12944C23.6928 6.73428 23.3725 6.41394 22.9773 6.41394C22.5822 6.41394 22.2618 6.73428 22.2618 7.12944C22.2618 7.5246 22.5822 7.84495 22.9773 7.84495Z" fill="white"/>
<path d="M20.8053 7.79812C21.1746 7.79812 21.4739 7.49876 21.4739 7.12947C21.4739 6.76018 21.1746 6.46082 20.8053 6.46082C20.436 6.46082 20.1366 6.76018 20.1366 7.12947C20.1366 7.49876 20.436 7.79812 20.8053 7.79812Z" fill="white"/>
<path d="M18.6332 7.7513C18.9766 7.7513 19.255 7.47291 19.255 7.1295C19.255 6.78608 18.9766 6.50769 18.6332 6.50769C18.2898 6.50769 18.0114 6.78608 18.0114 7.1295C18.0114 7.47291 18.2898 7.7513 18.6332 7.7513Z" fill="white"/>
<path d="M16.4612 7.70448C16.7787 7.70448 17.0361 7.44706 17.0361 7.12952C17.0361 6.81198 16.7787 6.55457 16.4612 6.55457C16.1436 6.55457 15.8862 6.81198 15.8862 7.12952C15.8862 7.44706 16.1436 7.70448 16.4612 7.70448Z" fill="white"/>
<path d="M14.2891 7.65754C14.5808 7.65754 14.8172 7.42109 14.8172 7.12943C14.8172 6.83776 14.5808 6.60132 14.2891 6.60132C13.9974 6.60132 13.761 6.83776 13.761 7.12943C13.761 7.42109 13.9974 7.65754 14.2891 7.65754Z" fill="white"/>
<path d="M12.117 7.61072C12.3828 7.61072 12.5983 7.39525 12.5983 7.12945C12.5983 6.86366 12.3828 6.64819 12.117 6.64819C11.8512 6.64819 11.6358 6.86366 11.6358 7.12945C11.6358 7.39525 11.8512 7.61072 12.117 7.61072Z" fill="white"/>
<path d="M9.94497 7.56389C10.1849 7.56389 10.3794 7.3694 10.3794 7.12948C10.3794 6.88956 10.1849 6.69507 9.94497 6.69507C9.70505 6.69507 9.51056 6.88956 9.51056 7.12948C9.51056 7.3694 9.70505 7.56389 9.94497 7.56389Z" fill="white"/>
<path d="M7.77291 7.51707C7.98695 7.51707 8.16047 7.34355 8.16047 7.12951C8.16047 6.91546 7.98695 6.74194 7.77291 6.74194C7.55886 6.74194 7.38535 6.91546 7.38535 7.12951C7.38535 7.34355 7.55886 7.51707 7.77291 7.51707Z" fill="white"/>
<path d="M25.1537 10.0596C25.5747 10.0596 25.916 9.7183 25.916 9.29726C25.916 8.87623 25.5747 8.53491 25.1537 8.53491C24.7326 8.53491 24.3913 8.87623 24.3913 9.29726C24.3913 9.7183 24.7326 10.0596 25.1537 10.0596Z" fill="white"/>
<path d="M22.9773 10.0128C23.3725 10.0128 23.6928 9.69245 23.6928 9.29729C23.6928 8.90213 23.3725 8.58179 22.9773 8.58179C22.5822 8.58179 22.2618 8.90213 22.2618 9.29729C22.2618 9.69245 22.5822 10.0128 22.9773 10.0128Z" fill="white"/>
<path d="M20.8053 9.96597C21.1746 9.96597 21.4739 9.6666 21.4739 9.29732C21.4739 8.92803 21.1746 8.62866 20.8053 8.62866C20.436 8.62866 20.1366 8.92803 20.1366 9.29732C20.1366 9.6666 20.436 9.96597 20.8053 9.96597Z" fill="white"/>
<path d="M18.6332 9.91903C18.9766 9.91903 19.255 9.64063 19.255 9.29722C19.255 8.95381 18.9766 8.67542 18.6332 8.67542C18.2898 8.67542 18.0114 8.95381 18.0114 9.29722C18.0114 9.64063 18.2898 9.91903 18.6332 9.91903Z" fill="white"/>
<path d="M14.2891 9.82538C14.5808 9.82538 14.8172 9.58894 14.8172 9.29727C14.8172 9.00561 14.5808 8.76917 14.2891 8.76917C13.9974 8.76917 13.761 9.00561 13.761 9.29727C13.761 9.58894 13.9974 9.82538 14.2891 9.82538Z" fill="white"/>
<path d="M12.117 9.77856C12.3828 9.77856 12.5983 9.56309 12.5983 9.2973C12.5983 9.03151 12.3828 8.81604 12.117 8.81604C11.8512 8.81604 11.6358 9.03151 11.6358 9.2973C11.6358 9.56309 11.8512 9.77856 12.117 9.77856Z" fill="white"/>
<path d="M27.3257 12.2743C27.7726 12.2743 28.1349 11.912 28.1349 11.4651C28.1349 11.0182 27.7726 10.6559 27.3257 10.6559C26.8788 10.6559 26.5165 11.0182 26.5165 11.4651C26.5165 11.912 26.8788 12.2743 27.3257 12.2743Z" fill="white"/>
<path d="M25.1537 12.2275C25.5747 12.2275 25.916 11.8861 25.916 11.4651C25.916 11.0441 25.5747 10.7028 25.1537 10.7028C24.7326 10.7028 24.3913 11.0441 24.3913 11.4651C24.3913 11.8861 24.7326 12.2275 25.1537 12.2275Z" fill="white"/>
<path d="M22.9773 12.1806C23.3725 12.1806 23.6928 11.8603 23.6928 11.4651C23.6928 11.07 23.3725 10.7496 22.9773 10.7496C22.5822 10.7496 22.2618 11.07 22.2618 11.4651C22.2618 11.8603 22.5822 12.1806 22.9773 12.1806Z" fill="white"/>
<path d="M18.6332 12.0869C18.9766 12.0869 19.255 11.8085 19.255 11.4651C19.255 11.1217 18.9766 10.8433 18.6332 10.8433C18.2898 10.8433 18.0114 11.1217 18.0114 11.4651C18.0114 11.8085 18.2898 12.0869 18.6332 12.0869Z" fill="white"/>
<path d="M14.2891 11.9932C14.5808 11.9932 14.8172 11.7568 14.8172 11.4651C14.8172 11.1735 14.5808 10.937 14.2891 10.937C13.9974 10.937 13.761 11.1735 13.761 11.4651C13.761 11.7568 13.9974 11.9932 14.2891 11.9932Z" fill="white"/>
<path d="M27.3257 14.4421C27.7726 14.4421 28.1349 14.0798 28.1349 13.6329C28.1349 13.186 27.7726 12.8237 27.3257 12.8237C26.8788 12.8237 26.5165 13.186 26.5165 13.6329C26.5165 14.0798 26.8788 14.4421 27.3257 14.4421Z" fill="white"/>
<path d="M25.1537 14.3952C25.5747 14.3952 25.916 14.0539 25.916 13.6328C25.916 13.2118 25.5747 12.8705 25.1537 12.8705C24.7326 12.8705 24.3913 13.2118 24.3913 13.6328C24.3913 14.0539 24.7326 14.3952 25.1537 14.3952Z" fill="white"/>
<path d="M22.9773 14.3484C23.3725 14.3484 23.6928 14.028 23.6928 13.6329C23.6928 13.2377 23.3725 12.9174 22.9773 12.9174C22.5822 12.9174 22.2618 13.2377 22.2618 13.6329C22.2618 14.028 22.5822 14.3484 22.9773 14.3484Z" fill="white"/>
<path d="M18.6332 14.2547C18.9766 14.2547 19.255 13.9763 19.255 13.6329C19.255 13.2895 18.9766 13.0111 18.6332 13.0111C18.2898 13.0111 18.0114 13.2895 18.0114 13.6329C18.0114 13.9763 18.2898 14.2547 18.6332 14.2547Z" fill="white"/>
<path d="M16.4612 14.2078C16.7787 14.2078 17.0361 13.9504 17.0361 13.6328C17.0361 13.3153 16.7787 13.0579 16.4612 13.0579C16.1436 13.0579 15.8862 13.3153 15.8862 13.6328C15.8862 13.9504 16.1436 14.2078 16.4612 14.2078Z" fill="white"/>
<path d="M27.3257 16.6099C27.7726 16.6099 28.1349 16.2476 28.1349 15.8007C28.1349 15.3537 27.7726 14.9915 27.3257 14.9915C26.8788 14.9915 26.5165 15.3537 26.5165 15.8007C26.5165 16.2476 26.8788 16.6099 27.3257 16.6099Z" fill="white"/>
<path d="M25.1537 16.563C25.5747 16.563 25.916 16.2217 25.916 15.8007C25.916 15.3796 25.5747 15.0383 25.1537 15.0383C24.7326 15.0383 24.3913 15.3796 24.3913 15.8007C24.3913 16.2217 24.7326 16.563 25.1537 16.563Z" fill="white"/>
<path d="M22.9773 16.5162C23.3725 16.5162 23.6928 16.1959 23.6928 15.8007C23.6928 15.4055 23.3725 15.0852 22.9773 15.0852C22.5822 15.0852 22.2618 15.4055 22.2618 15.8007C22.2618 16.1959 22.5822 16.5162 22.9773 16.5162Z" fill="white"/>
<path d="M18.6332 16.4224C18.9766 16.4224 19.255 16.1441 19.255 15.8006C19.255 15.4572 18.9766 15.1788 18.6332 15.1788C18.2898 15.1788 18.0114 15.4572 18.0114 15.8006C18.0114 16.1441 18.2898 16.4224 18.6332 16.4224Z" fill="white"/>
<path d="M16.4612 16.3756C16.7787 16.3756 17.0361 16.1182 17.0361 15.8007C17.0361 15.4831 16.7787 15.2257 16.4612 15.2257C16.1436 15.2257 15.8862 15.4831 15.8862 15.8007C15.8862 16.1182 16.1436 16.3756 16.4612 16.3756Z" fill="white"/>
<path d="M25.1537 18.7309C25.5747 18.7309 25.916 18.3896 25.916 17.9685C25.916 17.5475 25.5747 17.2062 25.1537 17.2062C24.7326 17.2062 24.3913 17.5475 24.3913 17.9685C24.3913 18.3896 24.7326 18.7309 25.1537 18.7309Z" fill="white"/>
<path d="M22.9773 18.6839C23.3725 18.6839 23.6928 18.3636 23.6928 17.9684C23.6928 17.5733 23.3725 17.2529 22.9773 17.2529C22.5822 17.2529 22.2618 17.5733 22.2618 17.9684C22.2618 18.3636 22.5822 18.6839 22.9773 18.6839Z" fill="white"/>
<path d="M20.8053 18.6371C21.1746 18.6371 21.4739 18.3377 21.4739 17.9685C21.4739 17.5992 21.1746 17.2998 20.8053 17.2998C20.436 17.2998 20.1366 17.5992 20.1366 17.9685C20.1366 18.3377 20.436 18.6371 20.8053 18.6371Z" fill="white"/>
<path d="M18.6332 18.5903C18.9766 18.5903 19.255 18.3119 19.255 17.9685C19.255 17.6251 18.9766 17.3467 18.6332 17.3467C18.2898 17.3467 18.0114 17.6251 18.0114 17.9685C18.0114 18.3119 18.2898 18.5903 18.6332 18.5903Z" fill="white"/>
<path d="M16.4612 18.5435C16.7787 18.5435 17.0361 18.2861 17.0361 17.9685C17.0361 17.651 16.7787 17.3936 16.4612 17.3936C16.1436 17.3936 15.8862 17.651 15.8862 17.9685C15.8862 18.2861 16.1436 18.5435 16.4612 18.5435Z" fill="white"/>
<path d="M27.3257 20.9455C27.7726 20.9455 28.1349 20.5833 28.1349 20.1363C28.1349 19.6894 27.7726 19.3271 27.3257 19.3271C26.8788 19.3271 26.5165 19.6894 26.5165 20.1363C26.5165 20.5833 26.8788 20.9455 27.3257 20.9455Z" fill="white"/>
<path d="M25.1537 20.8986C25.5747 20.8986 25.916 20.5573 25.916 20.1363C25.916 19.7152 25.5747 19.3739 25.1537 19.3739C24.7326 19.3739 24.3913 19.7152 24.3913 20.1363C24.3913 20.5573 24.7326 20.8986 25.1537 20.8986Z" fill="white"/>
<path d="M22.9773 20.8518C23.3725 20.8518 23.6928 20.5314 23.6928 20.1363C23.6928 19.7411 23.3725 19.4208 22.9773 19.4208C22.5822 19.4208 22.2618 19.7411 22.2618 20.1363C22.2618 20.5314 22.5822 20.8518 22.9773 20.8518Z" fill="white"/>
<path d="M18.6332 20.7581C18.9766 20.7581 19.255 20.4797 19.255 20.1363C19.255 19.7929 18.9766 19.5145 18.6332 19.5145C18.2898 19.5145 18.0114 19.7929 18.0114 20.1363C18.0114 20.4797 18.2898 20.7581 18.6332 20.7581Z" fill="white"/>
<path d="M16.4612 20.7112C16.7787 20.7112 17.0361 20.4538 17.0361 20.1362C17.0361 19.8187 16.7787 19.5613 16.4612 19.5613C16.1436 19.5613 15.8862 19.8187 15.8862 20.1362C15.8862 20.4538 16.1436 20.7112 16.4612 20.7112Z" fill="white"/>
<path d="M27.3257 23.1133C27.7726 23.1133 28.1349 22.751 28.1349 22.3041C28.1349 21.8572 27.7726 21.4949 27.3257 21.4949C26.8788 21.4949 26.5165 21.8572 26.5165 22.3041C26.5165 22.751 26.8788 23.1133 27.3257 23.1133Z" fill="white"/>
<path d="M25.1537 23.0664C25.5747 23.0664 25.916 22.7251 25.916 22.3041C25.916 21.8831 25.5747 21.5417 25.1537 21.5417C24.7326 21.5417 24.3913 21.8831 24.3913 22.3041C24.3913 22.7251 24.7326 23.0664 25.1537 23.0664Z" fill="white"/>
<path d="M22.9773 23.0196C23.3725 23.0196 23.6928 22.6993 23.6928 22.3041C23.6928 21.909 23.3725 21.5886 22.9773 21.5886C22.5822 21.5886 22.2618 21.909 22.2618 22.3041C22.2618 22.6993 22.5822 23.0196 22.9773 23.0196Z" fill="white"/>
<path d="M18.6332 22.9259C18.9766 22.9259 19.255 22.6475 19.255 22.3041C19.255 21.9606 18.9766 21.6823 18.6332 21.6823C18.2898 21.6823 18.0114 21.9606 18.0114 22.3041C18.0114 22.6475 18.2898 22.9259 18.6332 22.9259Z" fill="white"/>
<path d="M16.4612 22.879C16.7787 22.879 17.0361 22.6216 17.0361 22.3041C17.0361 21.9865 16.7787 21.7291 16.4612 21.7291C16.1436 21.7291 15.8862 21.9865 15.8862 22.3041C15.8862 22.6216 16.1436 22.879 16.4612 22.879Z" fill="white"/>
<path d="M27.3257 25.2811C27.7726 25.2811 28.1349 24.9188 28.1349 24.4719C28.1349 24.025 27.7726 23.6627 27.3257 23.6627C26.8788 23.6627 26.5165 24.025 26.5165 24.4719C26.5165 24.9188 26.8788 25.2811 27.3257 25.2811Z" fill="white"/>
<path d="M25.1537 25.2343C25.5747 25.2343 25.916 24.893 25.916 24.4719C25.916 24.0509 25.5747 23.7096 25.1537 23.7096C24.7326 23.7096 24.3913 24.0509 24.3913 24.4719C24.3913 24.893 24.7326 25.2343 25.1537 25.2343Z" fill="white"/>
<path d="M22.9773 25.1874C23.3725 25.1874 23.6928 24.867 23.6928 24.4719C23.6928 24.0767 23.3725 23.7563 22.9773 23.7563C22.5822 23.7563 22.2618 24.0767 22.2618 24.4719C22.2618 24.867 22.5822 25.1874 22.9773 25.1874Z" fill="white"/>
<path d="M18.6332 25.0937C18.9766 25.0937 19.255 24.8153 19.255 24.4719C19.255 24.1285 18.9766 23.8501 18.6332 23.8501C18.2898 23.8501 18.0114 24.1285 18.0114 24.4719C18.0114 24.8153 18.2898 25.0937 18.6332 25.0937Z" fill="white"/>
<path d="M16.4612 25.0469C16.7787 25.0469 17.0361 24.7895 17.0361 24.4719C17.0361 24.1544 16.7787 23.897 16.4612 23.897C16.1436 23.897 15.8862 24.1544 15.8862 24.4719C15.8862 24.7895 16.1436 25.0469 16.4612 25.0469Z" fill="white"/>
<path d="M25.1537 27.402C25.5747 27.402 25.916 27.0607 25.916 26.6397C25.916 26.2186 25.5747 25.8773 25.1537 25.8773C24.7326 25.8773 24.3913 26.2186 24.3913 26.6397C24.3913 27.0607 24.7326 27.402 25.1537 27.402Z" fill="white"/>
<path d="M22.9773 27.3552C23.3725 27.3552 23.6928 27.0349 23.6928 26.6397C23.6928 26.2445 23.3725 25.9242 22.9773 25.9242C22.5822 25.9242 22.2618 26.2445 22.2618 26.6397C22.2618 27.0349 22.5822 27.3552 22.9773 27.3552Z" fill="white"/>
<path d="M20.8053 27.3084C21.1746 27.3084 21.4739 27.009 21.4739 26.6397C21.4739 26.2704 21.1746 25.9711 20.8053 25.9711C20.436 25.9711 20.1366 26.2704 20.1366 26.6397C20.1366 27.009 20.436 27.3084 20.8053 27.3084Z" fill="white"/>
<path d="M18.6332 27.2616C18.9766 27.2616 19.255 26.9832 19.255 26.6397C19.255 26.2963 18.9766 26.0179 18.6332 26.0179C18.2898 26.0179 18.0114 26.2963 18.0114 26.6397C18.0114 26.9832 18.2898 27.2616 18.6332 27.2616Z" fill="white"/>
<path d="M16.4612 27.2146C16.7787 27.2146 17.0361 26.9572 17.0361 26.6397C17.0361 26.3221 16.7787 26.0647 16.4612 26.0647C16.1436 26.0647 15.8862 26.3221 15.8862 26.6397C15.8862 26.9572 16.1436 27.2146 16.4612 27.2146Z" fill="white"/>
<path d="M12.117 27.121C12.3828 27.121 12.5983 26.9055 12.5983 26.6397C12.5983 26.3739 12.3828 26.1584 12.117 26.1584C11.8512 26.1584 11.6358 26.3739 11.6358 26.6397C11.6358 26.9055 11.8512 27.121 12.117 27.121Z" fill="white"/>
<path d="M22.9773 29.5188C23.3725 29.5188 23.6928 29.1984 23.6928 28.8033C23.6928 28.4081 23.3725 28.0878 22.9773 28.0878C22.5822 28.0878 22.2618 28.4081 22.2618 28.8033C22.2618 29.1984 22.5822 29.5188 22.9773 29.5188Z" fill="white"/>
<path d="M20.8053 29.4718C21.1746 29.4718 21.4739 29.1725 21.4739 28.8032C21.4739 28.4339 21.1746 28.1345 20.8053 28.1345C20.436 28.1345 20.1366 28.4339 20.1366 28.8032C20.1366 29.1725 20.436 29.4718 20.8053 29.4718Z" fill="white"/>
<path d="M18.6332 29.425C18.9766 29.425 19.255 29.1466 19.255 28.8032C19.255 28.4598 18.9766 28.1814 18.6332 28.1814C18.2898 28.1814 18.0114 28.4598 18.0114 28.8032C18.0114 29.1466 18.2898 29.425 18.6332 29.425Z" fill="white"/>
<path d="M16.4612 29.3782C16.7787 29.3782 17.0361 29.1208 17.0361 28.8032C17.0361 28.4857 16.7787 28.2283 16.4612 28.2283C16.1436 28.2283 15.8862 28.4857 15.8862 28.8032C15.8862 29.1208 16.1436 29.3782 16.4612 29.3782Z" fill="white"/>
<path d="M14.2891 29.3314C14.5808 29.3314 14.8172 29.0949 14.8172 28.8033C14.8172 28.5116 14.5808 28.2751 14.2891 28.2751C13.9974 28.2751 13.761 28.5116 13.761 28.8033C13.761 29.0949 13.9974 29.3314 14.2891 29.3314Z" fill="white"/>
<path d="M12.117 29.2845C12.3828 29.2845 12.5983 29.0691 12.5983 28.8033C12.5983 28.5375 12.3828 28.322 12.117 28.322C11.8512 28.322 11.6358 28.5375 11.6358 28.8033C11.6358 29.0691 11.8512 29.2845 12.117 29.2845Z" fill="white"/>
<path d="M9.94497 29.2376C10.1849 29.2376 10.3794 29.0431 10.3794 28.8032C10.3794 28.5633 10.1849 28.3688 9.94497 28.3688C9.70505 28.3688 9.51056 28.5633 9.51056 28.8032C9.51056 29.0431 9.70505 29.2376 9.94497 29.2376Z" fill="white"/>
<path d="M7.77291 29.1908C7.98695 29.1908 8.16047 29.0173 8.16047 28.8032C8.16047 28.5892 7.98695 28.4156 7.77291 28.4156C7.55886 28.4156 7.38535 28.5892 7.38535 28.8032C7.38535 29.0173 7.55886 29.1908 7.77291 29.1908Z" fill="white"/>
<path d="M17.0361 9.29725C17.0361 8.98209 16.7806 8.72229 16.4612 8.72229C16.1417 8.72229 15.8862 8.97783 15.8862 9.29725V11.4651C15.8862 11.7802 16.1417 12.04 16.4612 12.04C16.7806 12.04 17.0361 11.7845 17.0361 11.4651V9.29725Z" fill="#0577E7"/>
<path d="M21.4739 11.465C21.4739 11.0945 21.1758 10.7964 20.8053 10.7964C20.4348 10.7964 20.1366 11.0945 20.1366 11.465V15.8006C20.1366 16.1712 20.4348 16.4693 20.8053 16.4693C21.1758 16.4693 21.4739 16.1712 21.4739 15.8006V11.465Z" fill="#F78E1E"/>
<path d="M21.4739 20.1363C21.4739 19.7658 21.1758 19.4677 20.8053 19.4677C20.4348 19.4677 20.1366 19.7658 20.1366 20.1363V24.4719C20.1366 24.8424 20.4348 25.1406 20.8053 25.1406C21.1758 25.1406 21.4739 24.8424 21.4739 24.4719V20.1363Z" fill="#F78E1E"/>
<path d="M14.8172 24.4718C14.8172 24.1822 14.583 23.9437 14.2891 23.9437C13.9952 23.9437 13.761 24.178 13.761 24.4718V26.6396C13.761 26.9292 13.9952 27.1677 14.2891 27.1677C14.583 27.1677 14.8172 26.9335 14.8172 26.6396V24.4718Z" fill="#0577E7"/>
<path d="M23.2627 34.8722H8.18603C4.14004 34.8722 0.856392 31.5928 0.856392 27.5426V8.39438C0.856392 4.34412 4.13578 1.06474 8.18603 1.06474H27.3342C31.3802 1.06474 34.6639 4.34412 34.6639 8.39438V24.7487C34.6639 25.0426 34.9024 25.2811 35.1963 25.2811C35.4901 25.2811 35.7286 25.0426 35.7286 24.7487V8.39438C35.7286 3.76065 31.9722 0 27.3342 0H8.18603C3.54804 0 -0.208344 3.75639 -0.208344 8.39438V27.5426C-0.208344 32.1763 3.54804 35.937 8.18603 35.937H23.2627C23.5566 35.937 23.7951 35.6985 23.7951 35.4046C23.7951 35.1107 23.5566 34.8722 23.2627 34.8722Z" fill="#F15A29"/>
</g>
<defs>
<clipPath id="clip0_840_3124">
<rect width="40" height="40" fill="white"/>
</clipPath>
</defs>
</svg>
